<?xml version="1.0" standalone="no"?>
<!DOCTYPE svg PUBLIC "-//W3C//DTD SVG 20010904//EN"
 "http://www.w3.org/TR/2001/REC-SVG-20010904/DTD/svg10.dtd">
<svg version="1.0" xmlns="http://www.w3.org/2000/svg"
 width="260.000000pt" height="260.000000pt" viewBox="0 0 260.000000 260.000000"
 preserveAspectRatio="xMidYMid meet">
<metadata>
Created by potrace 1.11, written by Peter Selinger 2001-2013
</metadata>
<g transform="translate(0.000000,260.000000) scale(0.100000,-0.100000)"
fill="#000000" stroke="none">
<path d="M160 1300 l0 -1300 1083 2 1082 3 1 210 c0 116 -3 212 -7 215 -4 3
-417 5 -918 4 -501 0 -912 2 -912 5 -4 19 -3 1174 1 1180 3 4 417 7 920 6
l915 0 1 163 1 162 -322 0 c-299 0 -323 1 -326 18 -3 9 -4 155 -3 325 l1 307
-759 0 -758 0 0 -1300z"/>
<path d="M1785 2329 l0 -272 264 2 c146 0 266 2 267 4 2 2 -117 123 -264 270
l-267 267 0 -271z"/>
<path d="M596 1511 c-2 -3 -3 -223 -3 -488 l0 -482 918 0 c861 -1 917 0 921
17 2 9 4 228 3 487 l0 470 -918 1 c-505 0 -920 -2 -921 -5z m1099 -205 c40
-12 52 -30 36 -55 -7 -12 -15 -11 -52 1 -90 30 -164 5 -199 -66 -24 -52 -32
-169 -17 -250 13 -65 69 -126 118 -127 57 -2 82 2 117 18 36 17 37 17 46 -14
6 -18 1 -25 -26 -39 -43 -22 -137 -29 -183 -14 -42 14 -105 65 -105 86 0 8 -4
14 -9 14 -5 0 -12 17 -16 38 -5 20 -10 44 -12 52 -10 43 -3 165 12 217 13 43
28 68 60 100 24 23 54 43 67 46 45 8 123 5 163 -7z m-449 -20 c-1 -13 -59
-122 -129 -242 -70 -119 -125 -220 -122 -223 3 -3 58 -5 123 -6 l117 0 3 -28
3 -27 -165 0 c-163 0 -166 0 -166 21 0 12 34 81 76 153 42 72 90 156 107 186
17 30 41 70 53 89 13 19 21 37 18 40 -3 3 -58 6 -122 6 l-117 0 -3 28 -3 27
164 0 164 0 -1 -24z m733 -73 c0 -54 0 -113 0 -131 l1 -34 53 58 c167 184 191
206 225 202 l33 -3 -51 -55 c-28 -30 -76 -82 -105 -114 l-54 -59 46 -66 c26
-36 72 -102 103 -146 79 -112 77 -105 32 -105 -40 0 -40 0 -133 136 l-94 135
-27 -30 c-29 -33 -29 -30 -30 -183 l0 -58 -32 0 -32 0 0 275 0 275 32 0 33 0
0 -97z m-1121 -400 l3 -53 -55 0 -56 0 0 54 0 53 53 -1 52 -1 3 -52z"/>
</g>
</svg>
